<mxfile host="65bd71144e">
    <diagram id="9gCpoze4Ezko7_gkgvhH" name="Seite-1">
        <mxGraphModel dx="1054" dy="792" grid="1" gridSize="10" guides="1" tooltips="1" connect="1" arrows="1" fold="1" page="1" pageScale="1" pageWidth="827" pageHeight="1169" math="0" shadow="0">
            <root>
                <mxCell id="0"/>
                <mxCell id="1" parent="0"/>
                <mxCell id="7" value="Entities" style="rounded=0;whiteSpace=wrap;html=1;fontStyle=2;labelPosition=center;verticalLabelPosition=middle;align=left;verticalAlign=middle;spacingLeft=14;dashed=1;fillColor=none;" vertex="1" parent="1">
                    <mxGeometry x="80" y="370" width="530" height="80" as="geometry"/>
                </mxCell>
                <mxCell id="IsHN5u6iE1gPFRgJ8gi5-5" value="" style="edgeStyle=orthogonalEdgeStyle;rounded=0;orthogonalLoop=1;jettySize=auto;html=1;" parent="1" source="IsHN5u6iE1gPFRgJ8gi5-1" target="IsHN5u6iE1gPFRgJ8gi5-4" edge="1">
                    <mxGeometry relative="1" as="geometry"/>
                </mxCell>
                <mxCell id="IsHN5u6iE1gPFRgJ8gi5-1" value="Organisations" style="rounded=0;whiteSpace=wrap;html=1;" parent="1" vertex="1">
                    <mxGeometry x="280" y="80" width="120" height="60" as="geometry"/>
                </mxCell>
                <mxCell id="IsHN5u6iE1gPFRgJ8gi5-3" value="super organisations" style="edgeStyle=orthogonalEdgeStyle;rounded=0;orthogonalLoop=1;jettySize=auto;html=1;exitX=0.5;exitY=0;exitDx=0;exitDy=0;" parent="1" source="IsHN5u6iE1gPFRgJ8gi5-1" target="IsHN5u6iE1gPFRgJ8gi5-1" edge="1">
                    <mxGeometry relative="1" as="geometry">
                        <Array as="points">
                            <mxPoint x="340" y="40"/>
                            <mxPoint x="440" y="40"/>
                            <mxPoint x="440" y="110"/>
                        </Array>
                    </mxGeometry>
                </mxCell>
                <mxCell id="IsHN5u6iE1gPFRgJ8gi5-7" value="" style="edgeStyle=orthogonalEdgeStyle;rounded=0;orthogonalLoop=1;jettySize=auto;html=1;" parent="1" source="IsHN5u6iE1gPFRgJ8gi5-4" target="IsHN5u6iE1gPFRgJ8gi5-6" edge="1">
                    <mxGeometry relative="1" as="geometry"/>
                </mxCell>
                <mxCell id="5" style="edgeStyle=orthogonalEdgeStyle;html=1;strokeColor=default;rounded=0;" parent="1" source="IsHN5u6iE1gPFRgJ8gi5-4" target="2" edge="1">
                    <mxGeometry relative="1" as="geometry"/>
                </mxCell>
                <mxCell id="IsHN5u6iE1gPFRgJ8gi5-4" value="Repositories" style="whiteSpace=wrap;html=1;rounded=0;" parent="1" vertex="1">
                    <mxGeometry x="280" y="180" width="120" height="60" as="geometry"/>
                </mxCell>
                <mxCell id="IsHN5u6iE1gPFRgJ8gi5-9" value="" style="edgeStyle=orthogonalEdgeStyle;rounded=0;orthogonalLoop=1;jettySize=auto;html=1;" parent="1" source="IsHN5u6iE1gPFRgJ8gi5-6" target="IsHN5u6iE1gPFRgJ8gi5-8" edge="1">
                    <mxGeometry relative="1" as="geometry">
                        <Array as="points">
                            <mxPoint x="380" y="360"/>
                            <mxPoint x="300" y="360"/>
                        </Array>
                    </mxGeometry>
                </mxCell>
                <mxCell id="IsHN5u6iE1gPFRgJ8gi5-11" value="" style="edgeStyle=orthogonalEdgeStyle;rounded=0;orthogonalLoop=1;jettySize=auto;html=1;" parent="1" source="IsHN5u6iE1gPFRgJ8gi5-6" target="IsHN5u6iE1gPFRgJ8gi5-10" edge="1">
                    <mxGeometry relative="1" as="geometry">
                        <Array as="points">
                            <mxPoint x="380" y="360"/>
                            <mxPoint x="460" y="360"/>
                        </Array>
                    </mxGeometry>
                </mxCell>
                <mxCell id="IsHN5u6iE1gPFRgJ8gi5-6" value="Phenotype Repositories" style="whiteSpace=wrap;html=1;rounded=0;" parent="1" vertex="1">
                    <mxGeometry x="400" y="280" width="120" height="60" as="geometry"/>
                </mxCell>
                <mxCell id="IsHN5u6iE1gPFRgJ8gi5-8" value="Categories" style="whiteSpace=wrap;html=1;rounded=0;" parent="1" vertex="1">
                    <mxGeometry x="320" y="380" width="120" height="60" as="geometry"/>
                </mxCell>
                <mxCell id="IsHN5u6iE1gPFRgJ8gi5-13" value="" style="edgeStyle=orthogonalEdgeStyle;rounded=0;orthogonalLoop=1;jettySize=auto;html=1;" parent="1" source="IsHN5u6iE1gPFRgJ8gi5-10" target="IsHN5u6iE1gPFRgJ8gi5-12" edge="1">
                    <mxGeometry relative="1" as="geometry">
                        <Array as="points">
                            <mxPoint x="540" y="460"/>
                            <mxPoint x="460" y="460"/>
                        </Array>
                    </mxGeometry>
                </mxCell>
                <mxCell id="IsHN5u6iE1gPFRgJ8gi5-15" value="" style="edgeStyle=orthogonalEdgeStyle;rounded=0;orthogonalLoop=1;jettySize=auto;html=1;startArrow=none;" parent="1" source="IsHN5u6iE1gPFRgJ8gi5-10" target="IsHN5u6iE1gPFRgJ8gi5-14" edge="1">
                    <mxGeometry relative="1" as="geometry">
                        <Array as="points">
                            <mxPoint x="540" y="460"/>
                            <mxPoint x="620" y="460"/>
                        </Array>
                    </mxGeometry>
                </mxCell>
                <mxCell id="IsHN5u6iE1gPFRgJ8gi5-10" value="Phenotypes" style="whiteSpace=wrap;html=1;rounded=0;" parent="1" vertex="1">
                    <mxGeometry x="480" y="380" width="120" height="60" as="geometry"/>
                </mxCell>
                <mxCell id="IsHN5u6iE1gPFRgJ8gi5-14" value="Unrestricted&lt;br&gt;Composite Phenotypes" style="whiteSpace=wrap;html=1;rounded=0;" parent="1" vertex="1">
                    <mxGeometry x="560" y="480" width="120" height="60" as="geometry"/>
                </mxCell>
                <mxCell id="IsHN5u6iE1gPFRgJ8gi5-18" value="" style="edgeStyle=orthogonalEdgeStyle;rounded=0;orthogonalLoop=1;jettySize=auto;html=1;" parent="1" source="IsHN5u6iE1gPFRgJ8gi5-12" target="IsHN5u6iE1gPFRgJ8gi5-17" edge="1">
                    <mxGeometry relative="1" as="geometry"/>
                </mxCell>
                <mxCell id="IsHN5u6iE1gPFRgJ8gi5-19" value="" style="edgeStyle=orthogonalEdgeStyle;rounded=0;orthogonalLoop=1;jettySize=auto;html=1;" parent="1" source="IsHN5u6iE1gPFRgJ8gi5-12" target="IsHN5u6iE1gPFRgJ8gi5-17" edge="1">
                    <mxGeometry relative="1" as="geometry"/>
                </mxCell>
                <mxCell id="IsHN5u6iE1gPFRgJ8gi5-21" value="" style="edgeStyle=orthogonalEdgeStyle;rounded=0;orthogonalLoop=1;jettySize=auto;html=1;" parent="1" source="IsHN5u6iE1gPFRgJ8gi5-14" target="IsHN5u6iE1gPFRgJ8gi5-20" edge="1">
                    <mxGeometry relative="1" as="geometry"/>
                </mxCell>
                <mxCell id="IsHN5u6iE1gPFRgJ8gi5-12" value="Unrestricted&lt;br&gt;Single Phenotypes" style="whiteSpace=wrap;html=1;rounded=0;" parent="1" vertex="1">
                    <mxGeometry x="400" y="480" width="120" height="60" as="geometry"/>
                </mxCell>
                <mxCell id="IsHN5u6iE1gPFRgJ8gi5-17" value="Restricted&lt;br&gt;Single Phenotype" style="whiteSpace=wrap;html=1;rounded=0;" parent="1" vertex="1">
                    <mxGeometry x="400" y="580" width="120" height="60" as="geometry"/>
                </mxCell>
                <mxCell id="IsHN5u6iE1gPFRgJ8gi5-20" value="Restricted&lt;br&gt;Composite Phenotype" style="whiteSpace=wrap;html=1;rounded=0;" parent="1" vertex="1">
                    <mxGeometry x="560" y="580" width="120" height="60" as="geometry"/>
                </mxCell>
                <mxCell id="6" style="edgeStyle=orthogonalEdgeStyle;rounded=0;html=1;strokeColor=default;" parent="1" source="2" target="3" edge="1">
                    <mxGeometry relative="1" as="geometry"/>
                </mxCell>
                <mxCell id="2" value="Concept&lt;br&gt;Repositories" style="whiteSpace=wrap;html=1;rounded=0;" parent="1" vertex="1">
                    <mxGeometry x="160" y="280" width="120" height="60" as="geometry"/>
                </mxCell>
                <mxCell id="3" value="Concepts" style="whiteSpace=wrap;html=1;rounded=0;" parent="1" vertex="1">
                    <mxGeometry x="160" y="380" width="120" height="60" as="geometry"/>
                </mxCell>
            </root>
        </mxGraphModel>
    </diagram>
</mxfile>